<svg width="62" height="62" viewBox="0 0 62 62" fill="none" xmlns="http://www.w3.org/2000/svg">
<g filter="url(#filter0_d_0_213)">
<circle cx="31" cy="27" r="16" fill="white"/>
</g>
<path d="M34.7384 34.0575L34.4868 35.0856C33.7323 35.3834 33.1296 35.6101 32.6808 35.7659C32.2315 35.9222 31.7095 36 31.1147 36C30.2013 36 29.4908 35.7762 28.9841 35.3318C28.4774 34.8856 28.2239 34.3201 28.2239 33.6342C28.2239 33.3687 28.2423 33.0955 28.2806 32.8172C28.3191 32.5386 28.3804 32.2249 28.4643 31.8741L29.4073 28.5367C29.4911 28.2171 29.5624 27.9143 29.6196 27.628C29.6775 27.3434 29.7054 27.0815 29.7054 26.8459C29.7054 26.4196 29.6171 26.1215 29.4415 25.9539C29.2658 25.7868 28.9305 25.7019 28.4329 25.7019C28.1891 25.7019 27.9386 25.7409 27.6832 25.8164C27.4267 25.8923 27.2074 25.9655 27.0234 26.0336L27.2755 25.0047C27.8932 24.7532 28.4837 24.5378 29.0485 24.3591C29.6133 24.1798 30.1469 24.0901 30.6517 24.0901C31.5588 24.0901 32.2588 24.3094 32.7504 24.7478C33.2419 25.1866 33.4876 25.7555 33.4876 26.4564C33.4876 26.6014 33.4715 26.857 33.4368 27.2222C33.4029 27.5883 33.3398 27.9237 33.2479 28.2287L32.309 31.5528C32.232 31.8198 32.1628 32.125 32.1026 32.4685C32.0405 32.8097 32.0109 33.0704 32.0109 33.2452C32.0109 33.6866 32.1093 33.988 32.3066 34.1482C32.5053 34.3084 32.8476 34.3881 33.3339 34.3881C33.5621 34.3881 33.8219 34.3476 34.1105 34.268C34.3983 34.1885 34.6082 34.1186 34.7384 34.0575ZM34.9765 20.102C34.9765 20.6812 34.7582 21.1758 34.3196 21.5825C33.882 21.9907 33.3548 22.1949 32.7381 22.1949C32.1194 22.1949 31.5909 21.9907 31.1484 21.5825C30.7067 21.1757 30.4854 20.6812 30.4854 20.102C30.4854 19.524 30.7067 19.0286 31.1484 18.6167C31.5901 18.2055 32.1196 18 32.7381 18C33.3547 18 33.882 18.206 34.3196 18.6167C34.7585 19.0286 34.9765 19.5242 34.9765 20.102Z" fill="#374A59"/>
<defs>
<filter id="filter0_d_0_213" x="0" y="0" width="62" height="62" filterUnits="userSpaceOnUse" color-interpolation-filters="sRGB">
<feFlood flood-opacity="0" result="BackgroundImageFix"/>
<feColorMatrix in="SourceAlpha" type="matrix" values="0 0 0 0 0 0 0 0 0 0 0 0 0 0 0 0 0 0 127 0" result="hardAlpha"/>
<feOffset dy="4"/>
<feGaussianBlur stdDeviation="7.5"/>
<feColorMatrix type="matrix" values="0 0 0 0 0 0 0 0 0 0 0 0 0 0 0 0 0 0 0.1 0"/>
<feBlend mode="normal" in2="BackgroundImageFix" result="effect1_dropShadow_0_213"/>
<feBlend mode="normal" in="SourceGraphic" in2="effect1_dropShadow_0_213" result="shape"/>
</filter>
</defs>
</svg>
